<svg id="Layer_1" data-name="Layer 1" xmlns="http://www.w3.org/2000/svg" xmlns:xlink="http://www.w3.org/1999/xlink" viewBox="0 0 70.12 18.27">
	<defs>
		<style>
			.cls-1{
				fill:none;
			}
			.egg-clip {
				clip-path:url(#clip-path);
			}
			.white {
				fill:#fff;
			}
			.yolk-highlight {
				fill:#f9b03d;
			}
			.yolk-shadow {
				fill:#ef941d;
			}

		</style>
	</defs>
	<defs>
		<clipPath id="clip-path" transform="translate(-54.54 -117.48)">
			<rect class="cls-1" x="45.61" y="127.03" width="89.36" height="8.69" />
		</clipPath>
	</defs>
	<g id="Fried_egg" data-name="Fried egg">
		<g class="cls-2">
			<path class="cls-3" d="M124.67,126.61c0,1.68-3,2.51-6.37,3.83-1.92.75-3.86,2.93-6.61,3.5-2.2.46-4.89-.7-7.51-.4-2.31.28-4.63,2.06-7.18,2.2-2.37.12-4.87-1.38-7.39-1.38s-5,1.5-7.4,1.38c-2.56-.14-4.87-1.92-7.18-2.2-2.62-.3-5.31.86-7.51.4-2.75-.57-4.69-2.75-6.61-3.51-3.35-1.31-6.37-2.14-6.37-3.82s3-2.51,6.37-3.83c1.92-.75,3.86-2.93,6.61-3.5,2.2-.46,4.89.7,7.51.4,2.31-.28,4.63-2.06,7.18-2.2,2.37-.12,4.87,1.38,7.4,1.38s5-1.5,7.39-1.38c2.56.14,4.87,1.92,7.18,2.2,2.62.3,5.31-.86,7.51-.4,2.75.57,4.69,2.75,6.61,3.51C121.65,124.1,124.67,124.93,124.67,126.61Z" transform="translate(-54.54 -117.48)" />
			<path class="cls-4" d="M104.86,127.81c0,2.93-6.43,3.87-14.3,3.82s-14.23-1.07-14.18-4,6.46-5.26,14.32-5.21S104.91,124.89,104.86,127.81Z" transform="translate(-54.54 -117.48)" />
			<path class="cls-5" d="M99.34,123.47c2.21,1,3.56,2.18,3.54,3.53,0,2.92-6.44,3.87-14.31,3.82a44.56,44.56,0,0,1-10.32-1c2.44,1.19,7,1.66,12.31,1.7,7.87,0,14.26-.9,14.31-3.83C104.89,126,102.72,124.46,99.34,123.47Z" transform="translate(-54.54 -117.48)" />
		</g>
	</g>
</svg>
